<svg xmlns="http://www.w3.org/2000/svg" style="display: none;"><symbol id="youtube" viewBox="0 -62 512.00199 512"><title>youtube</title><path d="m334.808594 170.992188-113.113282-61.890626c-6.503906-3.558593-14.191406-3.425781-20.566406.351563-6.378906 3.78125-10.183594 10.460937-10.183594 17.875v122.71875c0 7.378906 3.78125 14.046875 10.117188 17.832031 3.308594 1.976563 6.976562 2.96875 10.652344 2.96875 3.367187 0 6.742187-.832031 9.847656-2.503906l113.117188-60.824219c6.714843-3.613281 10.90625-10.59375 10.9375-18.222656.027343-7.628906-4.113282-14.640625-10.808594-18.304687zm-113.859375 63.617187v-91.71875l84.539062 46.257813zm0 0"/><path d="m508.234375 91.527344-.023437-.234375c-.433594-4.121094-4.75-40.777344-22.570313-59.421875-20.597656-21.929688-43.949219-24.59375-55.179687-25.871094-.929688-.105469-1.78125-.203125-2.542969-.304688l-.894531-.09375c-67.6875-4.921874-169.910157-5.5937495-170.933594-5.59765575l-.089844-.00390625-.089844.00390625c-1.023437.00390625-103.246094.67578175-171.542968 5.59765575l-.902344.09375c-.726563.097657-1.527344.1875-2.398438.289063-11.101562 1.28125-34.203125 3.949219-54.859375 26.671875-16.972656 18.445312-21.878906 54.316406-22.382812 58.347656l-.058594.523438c-.152344 1.714844-3.765625 42.539062-3.765625 83.523437v38.3125c0 40.984375 3.613281 81.808594 3.765625 83.527344l.027344.257813c.433593 4.054687 4.746093 40.039062 22.484375 58.691406 19.367187 21.195312 43.855468 24 57.027344 25.507812 2.082031.238282 3.875.441406 5.097656.65625l1.183594.164063c39.082031 3.71875 161.617187 5.550781 166.8125 5.625l.15625.003906.15625-.003906c1.023437-.003907 103.242187-.675781 170.929687-5.597657l.894531-.09375c.855469-.113281 1.816406-.214843 2.871094-.324218 11.039062-1.171875 34.015625-3.605469 54.386719-26.019532 16.972656-18.449218 21.882812-54.320312 22.382812-58.347656l.058594-.523437c.152344-1.71875 3.769531-42.539063 3.769531-83.523438v-38.3125c-.003906-40.984375-3.617187-81.804687-3.769531-83.523437zm-26.238281 121.835937c0 37.933594-3.3125 77-3.625 80.585938-1.273438 9.878906-6.449219 32.574219-14.71875 41.5625-12.75 14.027343-25.847656 15.417969-35.410156 16.429687-1.15625.121094-2.226563.238282-3.195313.359375-65.46875 4.734375-163.832031 5.460938-168.363281 5.488281-5.082032-.074218-125.824219-1.921874-163.714844-5.441406-1.941406-.316406-4.039062-.558594-6.25-.808594-11.214844-1.285156-26.566406-3.042968-38.371094-16.027343l-.277344-.296875c-8.125-8.464844-13.152343-29.6875-14.429687-41.148438-.238281-2.710937-3.636719-42.238281-3.636719-80.703125v-38.3125c0-37.890625 3.304688-76.914062 3.625-80.574219 1.519532-11.636718 6.792969-32.957031 14.71875-41.574218 13.140625-14.453125 26.996094-16.054688 36.160156-17.113282.875-.101562 1.691407-.195312 2.445313-.292968 66.421875-4.757813 165.492187-5.464844 169.046875-5.492188 3.554688.023438 102.589844.734375 168.421875 5.492188.808594.101562 1.691406.203125 2.640625.3125 9.425781 1.074218 23.671875 2.699218 36.746094 16.644531l.121094.128906c8.125 8.464844 13.152343 30.058594 14.429687 41.75.226563 2.558594 3.636719 42.171875 3.636719 80.71875zm0 0"/></symbol><symbol id="instagram" viewBox="0 0 512.00096 512.00096"><title>instagram</title><path d="m373.40625 0h-234.8125c-76.421875 0-138.59375 62.171875-138.59375 138.59375v234.816406c0 76.417969 62.171875 138.589844 138.59375 138.589844h234.816406c76.417969 0 138.589844-62.171875 138.589844-138.589844v-234.816406c0-76.421875-62.171875-138.59375-138.59375-138.59375zm108.578125 373.410156c0 59.867188-48.707031 108.574219-108.578125 108.574219h-234.8125c-59.871094 0-108.578125-48.707031-108.578125-108.574219v-234.816406c0-59.871094 48.707031-108.578125 108.578125-108.578125h234.816406c59.867188 0 108.574219 48.707031 108.574219 108.578125zm0 0"/><path d="m256 116.003906c-77.195312 0-139.996094 62.800782-139.996094 139.996094s62.800782 139.996094 139.996094 139.996094 139.996094-62.800782 139.996094-139.996094-62.800782-139.996094-139.996094-139.996094zm0 249.976563c-60.640625 0-109.980469-49.335938-109.980469-109.980469 0-60.640625 49.339844-109.980469 109.980469-109.980469 60.644531 0 109.980469 49.339844 109.980469 109.980469 0 60.644531-49.335938 109.980469-109.980469 109.980469zm0 0"/><path d="m399.34375 66.285156c-22.8125 0-41.367188 18.558594-41.367188 41.367188 0 22.8125 18.554688 41.371094 41.367188 41.371094s41.371094-18.558594 41.371094-41.371094-18.558594-41.367188-41.371094-41.367188zm0 52.71875c-6.257812 0-11.351562-5.09375-11.351562-11.351562 0-6.261719 5.09375-11.351563 11.351562-11.351563 6.261719 0 11.355469 5.089844 11.355469 11.351563 0 6.257812-5.09375 11.351562-11.355469 11.351562zm0 0"/></symbol><symbol id="twitter" viewBox="0 -47 512.00004 512"><title>twitter</title><path d="m512 55.964844c-32.207031 1.484375-31.503906 1.363281-35.144531 1.667968l19.074219-54.472656s-59.539063 21.902344-74.632813 25.820313c-39.640625-35.628907-98.5625-37.203125-140.6875-11.3125-34.496094 21.207031-53.011719 57.625-46.835937 100.191406-67.136719-9.316406-123.703126-41.140625-168.363282-94.789063l-14.125-16.964843-10.554687 19.382812c-13.339844 24.492188-17.769531 52.496094-12.476563 78.851563 2.171875 10.8125 5.863282 21.125 10.976563 30.78125l-12.117188-4.695313-1.4375 20.246094c-1.457031 20.566406 5.390625 44.574219 18.320313 64.214844 3.640625 5.53125 8.328125 11.605469 14.269531 17.597656l-6.261719-.960937 7.640625 23.199218c10.042969 30.480469 30.902344 54.0625 57.972657 67.171875-27.035157 11.472657-48.875 18.792969-84.773438 30.601563l-32.84375 10.796875 30.335938 16.585937c11.566406 6.324219 52.4375 27.445313 92.820312 33.78125 89.765625 14.078125 190.832031 2.613282 258.871094-58.664062 57.308594-51.613282 76.113281-125.03125 72.207031-201.433594-.589844-11.566406 2.578125-22.605469 8.921875-31.078125 12.707031-16.964844 48.765625-66.40625 48.84375-66.519531zm-72.832031 48.550781c-10.535157 14.066406-15.8125 32.03125-14.867188 50.578125 3.941407 77.066406-17.027343 136.832031-62.328125 177.628906-52.917968 47.660156-138.273437 66.367188-234.171875 51.324219-17.367187-2.722656-35.316406-8.820313-50.171875-14.910156 30.097656-10.355469 53.339844-19.585938 90.875-37.351563l52.398438-24.800781-57.851563-3.703125c-27.710937-1.773438-50.785156-15.203125-64.96875-37.007812 7.53125-.4375 14.792969-1.65625 22.023438-3.671876l55.175781-15.367187-55.636719-13.625c-27.035156-6.621094-42.445312-22.796875-50.613281-35.203125-5.363281-8.152344-8.867188-16.503906-10.96875-24.203125 5.578125 1.496094 12.082031 2.5625 22.570312 3.601563l51.496094 5.09375-40.800781-31.828126c-29.398437-22.929687-41.179687-57.378906-32.542969-90.496093 91.75 95.164062 199.476563 88.011719 210.320313 90.527343-2.386719-23.183593-2.449219-23.238281-3.074219-25.445312-13.886719-49.089844 16.546875-74.015625 30.273438-82.453125 28.671874-17.621094 74.183593-20.277344 105.707031 8.753906 6.808593 6.265625 16.015625 8.730469 24.632812 6.589844 7.734375-1.921875 14.082031-3.957031 20.296875-6.171875l-12.9375 36.945312 16.515625.011719c-3.117187 4.179688-6.855469 9.183594-11.351562 15.183594zm0 0"/></symbol><symbol id="facebook" viewBox="-110 1 511 511.99996"><title>facebook</title><path d="m180 512h-81.992188c-13.695312 0-24.835937-11.140625-24.835937-24.835938v-184.9375h-47.835937c-13.695313 0-24.835938-11.144531-24.835938-24.835937v-79.246094c0-13.695312 11.140625-24.835937 24.835938-24.835937h47.835937v-39.683594c0-39.347656 12.355469-72.824219 35.726563-96.804688 23.476562-24.089843 56.285156-36.820312 94.878906-36.820312l62.53125.101562c13.671875.023438 24.792968 11.164063 24.792968 24.835938v73.578125c0 13.695313-11.136718 24.835937-24.828124 24.835937l-42.101563.015626c-12.839844 0-16.109375 2.574218-16.808594 3.363281-1.152343 1.308593-2.523437 5.007812-2.523437 15.222656v31.351563h58.269531c4.386719 0 8.636719 1.082031 12.289063 3.121093 7.878906 4.402344 12.777343 12.726563 12.777343 21.722657l-.03125 79.246093c0 13.6875-11.140625 24.828125-24.835937 24.828125h-58.46875v184.941406c0 13.695313-11.144532 24.835938-24.839844 24.835938zm-76.8125-30.015625h71.632812v-193.195313c0-9.144531 7.441407-16.582031 16.582032-16.582031h66.726562l.027344-68.882812h-66.757812c-9.140626 0-16.578126-7.4375-16.578126-16.582031v-44.789063c0-11.726563 1.191407-25.0625 10.042969-35.085937 10.695313-12.117188 27.550781-13.515626 39.300781-13.515626l36.921876-.015624v-63.226563l-57.332032-.09375c-62.023437 0-100.566406 39.703125-100.566406 103.609375v53.117188c0 9.140624-7.4375 16.582031-16.578125 16.582031h-56.09375v68.882812h56.09375c9.140625 0 16.578125 7.4375 16.578125 16.582031zm163.0625-451.867187h.003906zm0 0"/></symbol><symbol id="location-pin" viewBox="0 0 413.099 413.099"><title>location-pin</title><path d="M206.549,0L206.549,0c-82.6,0-149.3,66.7-149.3,149.3c0,28.8,9.2,56.3,22,78.899l97.3,168.399c6.1,11,18.4,16.5,30,16.5 c11.601,0,23.3-5.5,30-16.5l97.3-168.299c12.9-22.601,22-49.601,22-78.901C355.849,66.8,289.149,0,206.549,0z M206.549,193.4 c-30,0-54.5-24.5-54.5-54.5s24.5-54.5,54.5-54.5s54.5,24.5,54.5,54.5C261.049,169,236.549,193.4,206.549,193.4z"/></symbol><symbol id="phone-call" viewBox="0 0 513.64 513.64"><title>phone-call</title><path d="M499.66,376.96l-71.68-71.68c-25.6-25.6-69.12-15.359-79.36,17.92c-7.68,23.041-33.28,35.841-56.32,30.72 c-51.2-12.8-120.32-79.36-133.12-133.12c-7.68-23.041,7.68-48.641,30.72-56.32c33.28-10.24,43.52-53.76,17.92-79.36l-71.68-71.68 c-20.48-17.92-51.2-17.92-69.12,0l-48.64,48.64c-48.64,51.2,5.12,186.88,125.44,307.2c120.32,120.32,256,176.641,307.2,125.44 l48.64-48.64C517.581,425.6,517.581,394.88,499.66,376.96z"/></symbol><symbol id="male-user-shadow" viewBox="0 0 248.349 248.349"><title>male-user-shadow</title><path d="M9.954,241.305h228.441c3.051,0,5.896-1.246,7.805-3.416c1.659-1.882,2.393-4.27,2.078-6.723 c-5.357-41.734-31.019-76.511-66.15-95.053c-14.849,14.849-35.348,24.046-57.953,24.046s-43.105-9.197-57.953-24.046 C31.09,154.65,5.423,189.432,0.071,231.166c-0.315,2.453,0.424,4.846,2.078,6.723C4.058,240.059,6.903,241.305,9.954,241.305z"/><path d="M72.699,127.09c1.333,1.398,2.725,2.73,4.166,4.019c12.586,11.259,29.137,18.166,47.309,18.166 s34.723-6.913,47.309-18.166c1.441-1.289,2.834-2.622,4.166-4.019c1.327-1.398,2.622-2.828,3.84-4.329 c9.861-12.211,15.8-27.717,15.8-44.6c0-39.216-31.906-71.116-71.116-71.116S53.059,38.95,53.059,78.16 c0,16.883,5.939,32.39,15.8,44.6C70.072,124.262,71.366,125.687,72.699,127.09z"/></symbol><symbol id="smartphone" viewBox="0 0 450.56 450.56"><title>smartphone</title><path d="M304.384,0H146.176c-31.232,0-56.32,25.088-56.32,56.32v337.92c0,31.232,25.6,56.32,56.32,56.32h158.208 c31.232,0,56.32-25.088,56.32-56.32V56.32C360.704,25.088,335.616,0,304.384,0z M225.536,414.208c-14.336,0-25.6-11.264-25.6-25.6 s11.264-25.6,25.6-25.6s25.6,11.264,25.6,25.6S239.872,414.208,225.536,414.208z M335.104,335.872H115.456V75.264h219.648V335.872 z"/></symbol><symbol id="calendar" viewBox="0 0 512 512"><title>calendar</title><g> <g> <path d="M452,40h-24V0h-40v40H124V0H84v40H60C26.916,40,0,66.916,0,100v352c0,33.084,26.916,60,60,60h392 c33.084,0,60-26.916,60-60V100C512,66.916,485.084,40,452,40z M472,452c0,11.028-8.972,20-20,20H60c-11.028,0-20-8.972-20-20V188 h432V452z M472,148H40v-48c0-11.028,8.972-20,20-20h24v40h40V80h264v40h40V80h24c11.028,0,20,8.972,20,20V148z"/> </g> </g><g> <g> <rect x="76" y="230" width="40" height="40"/> </g> </g><g> <g> <rect x="156" y="230" width="40" height="40"/> </g> </g><g> <g> <rect x="236" y="230" width="40" height="40"/> </g> </g><g> <g> <rect x="316" y="230" width="40" height="40"/> </g> </g><g> <g> <rect x="396" y="230" width="40" height="40"/> </g> </g><g> <g> <rect x="76" y="310" width="40" height="40"/> </g> </g><g> <g> <rect x="156" y="310" width="40" height="40"/> </g> </g><g> <g> <rect x="236" y="310" width="40" height="40"/> </g> </g><g> <g> <rect x="316" y="310" width="40" height="40"/> </g> </g><g> <g> <rect x="76" y="390" width="40" height="40"/> </g> </g><g> <g> <rect x="156" y="390" width="40" height="40"/> </g> </g><g> <g> <rect x="236" y="390" width="40" height="40"/> </g> </g><g> <g> <rect x="316" y="390" width="40" height="40"/> </g> </g><g> <g> <rect x="396" y="310" width="40" height="40"/> </g> </g></symbol><symbol id="clocke" viewBox="0 0 559.98 559.98"><title>clocke</title><path d="M279.99,0C125.601,0,0,125.601,0,279.99c0,154.39,125.601,279.99,279.99,279.99c154.39,0,279.99-125.601,279.99-279.99 C559.98,125.601,434.38,0,279.99,0z M279.99,498.78c-120.644,0-218.79-98.146-218.79-218.79 c0-120.638,98.146-218.79,218.79-218.79s218.79,98.152,218.79,218.79C498.78,400.634,400.634,498.78,279.99,498.78z"/><path d="M304.226,280.326V162.976c0-13.103-10.618-23.721-23.716-23.721c-13.102,0-23.721,10.618-23.721,23.721v124.928 c0,0.373,0.092,0.723,0.11,1.096c-0.312,6.45,1.91,12.999,6.836,17.926l88.343,88.336c9.266,9.266,24.284,9.266,33.543,0 c9.26-9.266,9.266-24.284,0-33.544L304.226,280.326z"/></symbol><symbol id="shopping-cart" viewBox="0 0 512 512"><title>shopping-cart</title><path d="m490.299 185.717h-106.219l-59.584-136.433c-3.315-7.591-12.157-11.06-19.749-7.743-7.592 3.315-11.059 12.158-7.743 19.75l54.34 124.427h-190.688l54.34-124.427c3.315-7.592-.151-16.434-7.743-19.75-7.591-3.317-16.435.15-19.749 7.743l-59.584 136.433h-106.219c-13.895 0-24.207 12.579-21.167 25.82l55.935 243.63c2.221 9.674 11.015 16.55 21.167 16.55h356.728c10.152 0 18.946-6.876 21.167-16.55l55.935-243.63c3.04-13.24-7.273-25.82-21.167-25.82zm-359.557 46.004c-2.004 0-4.041-.404-5.996-1.258-7.592-3.315-11.059-12.157-7.743-19.75l11.268-25.802h32.736l-16.512 37.808c-2.461 5.639-7.971 9.002-13.753 9.002zm50.258 159.996c0 8.284-6.716 15-15 15s-15-6.716-15-15v-110c0-8.284 6.716-15 15-15s15 6.716 15 15zm90 0c0 8.284-6.716 15-15 15s-15-6.716-15-15v-110c0-8.284 6.716-15 15-15s15 6.716 15 15zm90 0c0 8.284-6.716 15-15 15s-15-6.716-15-15v-110c0-8.284 6.716-15 15-15s15 6.716 15 15zm26.253-161.254c-1.954.854-3.991 1.258-5.995 1.258-5.782 0-11.292-3.362-13.754-9.001l-16.512-37.808h32.736l11.268 25.802c3.316 7.592-.151 16.434-7.743 19.749z"/></symbol><symbol id="down-arrow" viewBox="0 0 512.011 512.011"><title>down-arrow</title><path d="M505.755,123.592c-8.341-8.341-21.824-8.341-30.165,0L256.005,343.176L36.421,123.592c-8.341-8.341-21.824-8.341-30.165,0 s-8.341,21.824,0,30.165l234.667,234.667c4.16,4.16,9.621,6.251,15.083,6.251c5.462,0,10.923-2.091,15.083-6.251l234.667-234.667 C514.096,145.416,514.096,131.933,505.755,123.592z"/></symbol></svg>